<svg version="1.1"
      xmlns="http://www.w3.org/2000/svg"
      xmlns:xlink="http://www.w3.org/1999/xlink"  id="snapshot-99989" width="350" height="350" viewBox="0 0 350 350"><desc>This image was made on Patterninja.com</desc><defs>
<!-- image 48473 -->
<g id="transformed-48473" data-image="48473" transform="translate(48.31514373922721, 251.883929674034) rotate(336, 21.604856260772788, 27.006070325966)"><g><svg version="1.1" width="43.209712521545576px" height="54.012140651932px" viewBox="0 0 43.209712521545576 54.012140651932"><g id="original-48473"><svg xmlns="http://www.w3.org/2000/svg" viewBox="0 0 54 67" xmlns:xlink="http://www.w3.org/1999/xlink" version="1.1" preserveAspectRatio="xMidYMid meet">
  <path fill-rule="evenodd" d="M15.95 56.05a3 3 0 0 1 0 4.243l-5.657 5.657a3 3 0 0 1-4.243-4.243l5.657-5.657a3 3 0 0 1 4.243 0zm22.1 0a3 3 0 0 0 0 4.243l5.657 5.657a3 3 0 0 0 4.243-4.243l-5.657-5.657a3 3 0 0 0-4.243 0z" fill="rgba(132, 159, 160, 0.3)" stroke="none"/>
  <path fill-rule="evenodd" d="M6.75 1.871c6.218-3.59 14.168-1.46 17.758 4.758l-22.516 13C-1.598 13.411.532 5.461 6.75 1.871z" fill="rgba(103, 186, 190, 0.3)" stroke="none"/>
  <path fill-rule="evenodd" d="M9.23.764c5.687-1.855 12.084.426 15.229 5.78L6.992 16.63C3.942 11.346 5.022 4.811 9.23.764z" fill="rgba(0, 0, 0, 0.1)" stroke="none"/>
  <path fill-rule="evenodd" d="M47.25 1.871c-6.218-3.59-14.168-1.46-17.758 4.758l22.516 13c3.59-6.218 1.46-14.168-4.758-17.758z" fill="rgba(103, 186, 190, 0.3)" stroke="none"/>
  <path fill-rule="evenodd" d="M44.77.764c-5.687-1.855-12.084.426-15.229 5.78L47.008 16.63c3.05-5.283 1.97-11.818-2.238-15.865z" fill="rgba(0, 0, 0, 0.04)" stroke="none"/>
  <circle cx="27" cy="38" r="27" fill-rule="evenodd" fill="rgba(106, 186, 189, 0.3)" stroke="none"/>
  <circle cx="27" cy="38" r="21" fill-rule="evenodd" fill="rgba(0, 0, 0, 0.04)" stroke="none"/>
  <path fill-rule="evenodd" d="M22.646 34.354l.708-.708 16 16-.708.708z" fill="rgba(128, 128, 128, 0.3)" stroke="none"/>
  <circle cx="27" cy="38" r="3" fill-rule="evenodd" fill="rgba(128, 128, 128, 0.3)" stroke="none"/>
  <path fill-rule="evenodd" d="M28 38a1 1 0 0 1-1 1H16a1 1 0 0 1 0-2h11a1 1 0 0 1 1 1z" fill="rgba(128, 128, 128, 0.3)" stroke="none"/>
  <path fill-rule="evenodd" d="M27 22a1 1 0 0 1 1 1v15a1 1 0 0 1-2 0V23a1 1 0 0 1 1-1z" fill="rgba(128, 128, 128, 0.3)" stroke="none"/>
</svg>
</g></svg></g></g>
<!-- /image 48473 -->

<!-- image 40150 -->
<g id="transformed-40150" data-image="40150" transform="translate(277.03917892589743, 29.43897365737174) rotate(1, 13.200821074102604, 16.501026342628258)"><g><svg version="1.1" width="26.40164214820521px" height="33.002052685256515px" viewBox="0 0 26.40164214820521 33.002052685256515"><g id="original-40150"><svg xmlns="http://www.w3.org/2000/svg" viewBox="0 0 54 67" xmlns:xlink="http://www.w3.org/1999/xlink" version="1.1" preserveAspectRatio="xMidYMid meet">
  <path fill-rule="evenodd" d="M15.95 56.05a3 3 0 0 1 0 4.243l-5.657 5.657a3 3 0 0 1-4.243-4.243l5.657-5.657a3 3 0 0 1 4.243 0zm22.1 0a3 3 0 0 0 0 4.243l5.657 5.657a3 3 0 0 0 4.243-4.243l-5.657-5.657a3 3 0 0 0-4.243 0z" fill="rgba(132, 159, 160, 0.3)" stroke="none"/>
  <path fill-rule="evenodd" d="M6.75 1.871c6.218-3.59 14.168-1.46 17.758 4.758l-22.516 13C-1.598 13.411.532 5.461 6.75 1.871z" fill="rgba(103, 186, 190, 0.3)" stroke="none"/>
  <path fill-rule="evenodd" d="M9.23.764c5.687-1.855 12.084.426 15.229 5.78L6.992 16.63C3.942 11.346 5.022 4.811 9.23.764z" fill="rgba(0, 0, 0, 0.1)" stroke="none"/>
  <path fill-rule="evenodd" d="M47.25 1.871c-6.218-3.59-14.168-1.46-17.758 4.758l22.516 13c3.59-6.218 1.46-14.168-4.758-17.758z" fill="rgba(103, 186, 190, 0.3)" stroke="none"/>
  <path fill-rule="evenodd" d="M44.77.764c-5.687-1.855-12.084.426-15.229 5.78L47.008 16.63c3.05-5.283 1.97-11.818-2.238-15.865z" fill="rgba(0, 0, 0, 0.04)" stroke="none"/>
  <circle cx="27" cy="38" r="27" fill-rule="evenodd" fill="rgba(106, 186, 189, 0.3)" stroke="none"/>
  <circle cx="27" cy="38" r="21" fill-rule="evenodd" fill="rgba(0, 0, 0, 0.04)" stroke="none"/>
  <path fill-rule="evenodd" d="M22.646 34.354l.708-.708 16 16-.708.708z" fill="rgba(128, 128, 128, 0.3)" stroke="none"/>
  <circle cx="27" cy="38" r="3" fill-rule="evenodd" fill="rgba(128, 128, 128, 0.3)" stroke="none"/>
  <path fill-rule="evenodd" d="M28 38a1 1 0 0 1-1 1H16a1 1 0 0 1 0-2h11a1 1 0 0 1 1 1z" fill="rgba(128, 128, 128, 0.3)" stroke="none"/>
  <path fill-rule="evenodd" d="M27 22a1 1 0 0 1 1 1v15a1 1 0 0 1-2 0V23a1 1 0 0 1 1-1z" fill="rgba(128, 128, 128, 0.3)" stroke="none"/>
</svg>
</g></svg></g></g>
<!-- /image 40150 -->

<!-- image 43972 -->
<g id="transformed-43972" data-image="43972" transform="translate(143.08719240265975, 100.8895427893778) rotate(23, 37.072807597340244, 46.110457210622194)"><g><svg version="1.1" width="74.14561519468049px" height="92.22091442124439px" viewBox="0 0 74.14561519468049 92.22091442124439"><g id="original-43972"><svg xmlns="http://www.w3.org/2000/svg" viewBox="0 0 54 67" xmlns:xlink="http://www.w3.org/1999/xlink" version="1.1" preserveAspectRatio="xMidYMid meet">
  <path fill-rule="evenodd" d="M15.95 56.05a3 3 0 0 1 0 4.243l-5.657 5.657a3 3 0 0 1-4.243-4.243l5.657-5.657a3 3 0 0 1 4.243 0zm22.1 0a3 3 0 0 0 0 4.243l5.657 5.657a3 3 0 0 0 4.243-4.243l-5.657-5.657a3 3 0 0 0-4.243 0z" fill="rgba(132, 159, 160, 0.3)" stroke="none"/>
  <path fill-rule="evenodd" d="M6.75 1.871c6.218-3.59 14.168-1.46 17.758 4.758l-22.516 13C-1.598 13.411.532 5.461 6.75 1.871z" fill="rgba(103, 186, 190, 0.3)" stroke="none"/>
  <path fill-rule="evenodd" d="M9.23.764c5.687-1.855 12.084.426 15.229 5.78L6.992 16.63C3.942 11.346 5.022 4.811 9.23.764z" fill="rgba(0, 0, 0, 0.1)" stroke="none"/>
  <path fill-rule="evenodd" d="M47.25 1.871c-6.218-3.59-14.168-1.46-17.758 4.758l22.516 13c3.59-6.218 1.46-14.168-4.758-17.758z" fill="rgba(103, 186, 190, 0.3)" stroke="none"/>
  <path fill-rule="evenodd" d="M44.77.764c-5.687-1.855-12.084.426-15.229 5.78L47.008 16.63c3.05-5.283 1.97-11.818-2.238-15.865z" fill="rgba(0, 0, 0, 0.04)" stroke="none"/>
  <circle cx="27" cy="38" r="27" fill-rule="evenodd" fill="rgba(106, 186, 189, 0.3)" stroke="none"/>
  <circle cx="27" cy="38" r="21" fill-rule="evenodd" fill="rgba(0, 0, 0, 0.04)" stroke="none"/>
  <path fill-rule="evenodd" d="M22.646 34.354l.708-.708 16 16-.708.708z" fill="rgba(128, 128, 128, 0.3)" stroke="none"/>
  <circle cx="27" cy="38" r="3" fill-rule="evenodd" fill="rgba(128, 128, 128, 0.3)" stroke="none"/>
  <path fill-rule="evenodd" d="M28 38a1 1 0 0 1-1 1H16a1 1 0 0 1 0-2h11a1 1 0 0 1 1 1z" fill="rgba(128, 128, 128, 0.3)" stroke="none"/>
  <path fill-rule="evenodd" d="M27 22a1 1 0 0 1 1 1v15a1 1 0 0 1-2 0V23a1 1 0 0 1 1-1z" fill="rgba(128, 128, 128, 0.3)" stroke="none"/>
</svg>
</g></svg></g></g>
<!-- /image 43972 -->

<!-- image 03881 -->
<g id="transformed-03881" data-image="03881" transform="translate(243.23114183129076, 225.05667067751588) rotate(346, 33.34885816870922, 33.8933293224841)"><g><svg version="1.1" width="66.69771633741844px" height="67.7866586449682px" viewBox="0 0 66.69771633741844 67.7866586449682"><g id="original-03881"><svg xmlns="http://www.w3.org/2000/svg" viewBox="0 0 60 61" xmlns:xlink="http://www.w3.org/1999/xlink" version="1.1" preserveAspectRatio="xMidYMid meet">
  <path fill-rule="evenodd" d="M39.733 56a11.973 11.973 0 0 1-19.466 0h19.466z" fill="rgba(255, 196, 0, 0.25)" stroke="none"/>
  <path fill-rule="evenodd" d="M37.839 9.607C51.382 15.677 53.61 37.107 53.945 42H54l6 10H0l6-10h.055c.335-4.893 2.563-26.324 16.106-32.393a8 8 0 1 1 15.677 0zM30 4a4 4 0 1 1 0 8 4 4 0 0 1 0-8z" fill="rgba(255, 196, 0, 0.4)" stroke="none"/>
  <path fill-rule="evenodd" d="M54 42l6 10H0l6-10z" fill="rgba(0, 0, 0, 0.097)" stroke="none"/>
  <path fill-rule="evenodd" d="M30 61c-3.86 0-7.485-1.862-9.733-5H30v5z" fill="rgba(0, 0, 0, 0.15)" stroke="none"/>
  <path fill-rule="evenodd" d="M30 4V0a8 8 0 0 0-7.839 9.607C8.618 15.677 6.39 37.107 6.055 42H6L0 52h30V12a4 4 0 1 1 0-8z" fill="rgba(255, 196, 0, 0.1)" stroke="none"/>
</svg>
</g></svg></g></g>
<!-- /image 03881 -->

<!-- image 88555 -->
<g id="transformed-88555" data-image="88555" transform="translate(48.73000125185988, 26.99686173881095) rotate(32, 22.539998748140114, 22.93313826118905)"><g><svg version="1.1" width="45.07999749628023px" height="45.8662765223781px" viewBox="0 0 45.07999749628023 45.8662765223781"><g id="original-88555"><svg xmlns="http://www.w3.org/2000/svg" viewBox="0 0 60 61" xmlns:xlink="http://www.w3.org/1999/xlink" version="1.1" preserveAspectRatio="xMidYMid meet">
  <path fill-rule="evenodd" d="M39.733 56a11.973 11.973 0 0 1-19.466 0h19.466z" fill="rgba(255, 175, 36, 0.3)" stroke="none"/>
  <path fill-rule="evenodd" d="M37.839 9.607C51.382 15.677 53.61 37.107 53.945 42H54l6 10H0l6-10h.055c.335-4.893 2.563-26.324 16.106-32.393a8 8 0 1 1 15.677 0zM30 4a4 4 0 1 1 0 8 4 4 0 0 1 0-8z" fill="rgba(255, 194, 31, 0.4)" stroke="none"/>
  <path fill-rule="evenodd" d="M54 42l6 10H0l6-10z" fill="rgba(0, 0, 0, 0.097)" stroke="none"/>
  <path fill-rule="evenodd" d="M30 61c-3.86 0-7.485-1.862-9.733-5H30v5z" fill="rgba(0, 0, 0, 0.15)" stroke="none"/>
  <path fill-rule="evenodd" d="M30 4V0a8 8 0 0 0-7.839 9.607C8.618 15.677 6.39 37.107 6.055 42H6L0 52h30V12a4 4 0 1 1 0-8z" fill="rgba(255, 196, 0, 0.1)" stroke="none"/>
</svg>
</g></svg></g></g>
<!-- /image 88555 -->
</defs><rect x="0" y="0" width="350" height="350" fill="rgba(0, 0, 0, 0)"></rect><use xlink:href="#transformed-48473" transform="translate(-350, -350)"></use><use xlink:href="#transformed-48473" transform="translate(0, -350)"></use><use xlink:href="#transformed-48473" transform="translate(350, -350)"></use><use xlink:href="#transformed-48473" transform="translate(-350, 0)"></use><use xlink:href="#transformed-48473" transform="translate(0, 0)"></use><use xlink:href="#transformed-48473" transform="translate(350, 0)"></use><use xlink:href="#transformed-48473" transform="translate(-350, 350)"></use><use xlink:href="#transformed-48473" transform="translate(0, 350)"></use><use xlink:href="#transformed-48473" transform="translate(350, 350)"></use><use xlink:href="#transformed-40150" transform="translate(-350, -350)"></use><use xlink:href="#transformed-40150" transform="translate(0, -350)"></use><use xlink:href="#transformed-40150" transform="translate(350, -350)"></use><use xlink:href="#transformed-40150" transform="translate(-350, 0)"></use><use xlink:href="#transformed-40150" transform="translate(0, 0)"></use><use xlink:href="#transformed-40150" transform="translate(350, 0)"></use><use xlink:href="#transformed-40150" transform="translate(-350, 350)"></use><use xlink:href="#transformed-40150" transform="translate(0, 350)"></use><use xlink:href="#transformed-40150" transform="translate(350, 350)"></use><use xlink:href="#transformed-43972" transform="translate(-350, -350)"></use><use xlink:href="#transformed-43972" transform="translate(0, -350)"></use><use xlink:href="#transformed-43972" transform="translate(350, -350)"></use><use xlink:href="#transformed-43972" transform="translate(-350, 0)"></use><use xlink:href="#transformed-43972" transform="translate(0, 0)"></use><use xlink:href="#transformed-43972" transform="translate(350, 0)"></use><use xlink:href="#transformed-43972" transform="translate(-350, 350)"></use><use xlink:href="#transformed-43972" transform="translate(0, 350)"></use><use xlink:href="#transformed-43972" transform="translate(350, 350)"></use><use xlink:href="#transformed-03881" transform="translate(-350, -350)"></use><use xlink:href="#transformed-03881" transform="translate(0, -350)"></use><use xlink:href="#transformed-03881" transform="translate(350, -350)"></use><use xlink:href="#transformed-03881" transform="translate(-350, 0)"></use><use xlink:href="#transformed-03881" transform="translate(0, 0)"></use><use xlink:href="#transformed-03881" transform="translate(350, 0)"></use><use xlink:href="#transformed-03881" transform="translate(-350, 350)"></use><use xlink:href="#transformed-03881" transform="translate(0, 350)"></use><use xlink:href="#transformed-03881" transform="translate(350, 350)"></use><use xlink:href="#transformed-88555" transform="translate(-350, -350)"></use><use xlink:href="#transformed-88555" transform="translate(0, -350)"></use><use xlink:href="#transformed-88555" transform="translate(350, -350)"></use><use xlink:href="#transformed-88555" transform="translate(-350, 0)"></use><use xlink:href="#transformed-88555" transform="translate(0, 0)"></use><use xlink:href="#transformed-88555" transform="translate(350, 0)"></use><use xlink:href="#transformed-88555" transform="translate(-350, 350)"></use><use xlink:href="#transformed-88555" transform="translate(0, 350)"></use><use xlink:href="#transformed-88555" transform="translate(350, 350)"></use></svg>